<?xml version="1.0" encoding="iso-8859-1"?>
<!-- Generator: Adobe Illustrator 19.0.0, SVG Export Plug-In . SVG Version: 6.00 Build 0)  -->
<svg xmlns="http://www.w3.org/2000/svg" xmlns:xlink="http://www.w3.org/1999/xlink" version="1.1" id="Layer_1" x="0px" y="0px" viewBox="0 0 505 505" style="enable-background:new 0 0 505 505;" xml:space="preserve" width="512" height="512">
<g>
	<g>
		<path style="fill:#F0CD00;" d="M497.503,252.499c0,135.31-109.69,245-245,245c-71.33,0-135.54-30.48-180.31-79.13    c-11.76-12.77-22.17-26.8-31.03-41.85c-21.39-36.38-33.66-78.77-33.66-124.02c0-135.31,109.69-245,245-245    c45.26,0,87.65,12.27,124.02,33.67c15.05,8.85,29.07,19.26,41.84,31.03C467.013,116.949,497.503,181.169,497.503,252.499z"/>
		<path style="fill:#FFDE50;" d="M497.503,252.499c0,132.26-104.79,240.04-235.88,244.83c-131.09-4.79-235.88-112.57-235.88-244.83    s104.79-240.04,235.88-244.83C392.713,12.459,497.503,120.239,497.503,252.499z"/>
		<path style="fill:#FFEA94;" d="M418.363,72.199l-346.17,346.17c-11.76-12.77-22.17-26.8-31.03-41.85l335.36-335.35    C391.573,50.019,405.593,60.429,418.363,72.199z"/>
		<path style="fill:#FFEA94;" d="M480.603,162.929l-317.68,317.68c-22.49-8.84-43.36-20.91-62.03-35.64l344.08-344.08    C459.703,119.559,471.773,140.429,480.603,162.929z"/>
		<path style="fill:#FAA300;" d="M442.883,252.499c0,105.14-85.24,190.38-190.38,190.38c-36.62,0-70.82-10.34-99.85-28.26    c-12.65-7.8-24.31-17.05-34.77-27.51c-7.69-7.68-14.73-16.03-21.02-24.94c-8.66-12.27-15.91-25.61-21.5-39.78    c-8.28-20.95-12.94-43.73-13.22-67.55c-0.02-0.78-0.02-1.56-0.02-2.34c0-105.14,85.23-190.38,190.38-190.38    c0.78,0,1.57,0,2.35,0.02c23.82,0.28,46.59,4.95,67.54,13.22c14.17,5.6,27.51,12.84,39.78,21.5c8.91,6.3,17.25,13.33,24.94,21.02    c10.46,10.45,19.71,22.12,27.51,34.77C432.543,181.679,442.883,215.879,442.883,252.499z"/>
		<path style="fill:#FFBD00;" d="M387.113,117.879l-269.23,269.23c-7.69-7.68-14.73-16.03-21.02-24.94    c-8.66-12.27-15.91-25.61-21.5-39.78c-8.28-20.95-12.94-43.73-13.22-67.55c-0.02-0.78-0.02-1.56-0.02-2.34    c0-105.14,85.23-190.38,190.38-190.38c0.78,0,1.57,0,2.35,0.02c23.82,0.28,46.59,4.95,67.54,13.22    c14.17,5.6,27.51,12.84,39.78,21.5C371.083,103.159,379.423,110.189,387.113,117.879z"/>
		<path style="fill:#F68E00;" d="M442.878,252.499c0,105.14-85.24,190.38-190.38,190.38c-3.61,0-7.19-0.1-10.75-0.3    c100.14-5.57,179.62-88.55,179.62-190.08s-79.48-184.51-179.62-190.08c3.56-0.2,7.14-0.3,10.75-0.3    C357.638,62.119,442.878,147.359,442.878,252.499z"/>
	</g>
	<path d="M252.5,505c-67.445,0-130.854-26.265-178.544-73.956C26.265,383.354,0,319.945,0,252.5S26.265,121.646,73.956,73.956   C121.646,26.265,185.055,0,252.5,0c35.385,0,69.613,7.178,101.736,21.335c3.791,1.671,5.509,6.098,3.839,9.888   c-1.671,3.791-6.1,5.51-9.888,3.838C317.982,21.75,285.788,15,252.5,15c-63.438,0-123.08,24.704-167.938,69.562   C39.704,129.42,15,189.062,15,252.5s24.704,123.08,69.563,167.938C129.42,465.296,189.062,490,252.5,490   s123.08-24.704,167.938-69.562C465.296,375.58,490,315.938,490,252.5c0-42.136-11.175-83.523-32.316-119.687   c-20.525-35.109-49.904-64.564-84.961-85.183c-3.571-2.1-4.763-6.697-2.663-10.267s6.698-4.762,10.267-2.663   c37.263,21.916,68.49,53.224,90.307,90.542C493.116,163.701,505,207.706,505,252.5c0,67.445-26.265,130.854-73.956,178.544   C383.354,478.735,319.945,505,252.5,505z"/>
	<path d="M252.5,450.378c-109.11,0-197.879-88.768-197.879-197.878S143.39,54.622,252.5,54.622S450.378,143.39,450.378,252.5   S361.61,450.378,252.5,450.378z M252.5,69.622c-100.84,0-182.879,82.039-182.879,182.878S151.66,435.378,252.5,435.378   c100.839,0,182.878-82.039,182.878-182.878S353.339,69.622,252.5,69.622z"/>
	<path style="fill:#F68E00;" d="M344.578,233.718h-32.591c-11.046,0-20,8.954-20,20s8.954,20,20,20h11.438   c-4.47,37.554-21.925,67.742-52.054,89.917c-6.103,4.491-13.773,5.138-20.52,1.726c-3.222-1.628-10.713-6.588-10.713-17.437   v-96.428h13.703c11.046,0,20-8.954,20-20s-8.954-20-20-20h-13.703v-91.105c0-11.046-8.954-20-20-20h-45.924   c-11.046,0-20,8.954-20,20s8.954,20,20,20h25.924v71.105h-40.737c-11.046,0-20,8.954-20,20s8.954,20,20,20h40.737v96.428   c0,22.586,12.516,42.946,32.663,53.133c8.559,4.328,17.776,6.461,26.948,6.461c12.459,0,24.831-3.939,35.332-11.668   c31.703-23.335,69.495-66.935,69.495-142.132C364.578,242.672,355.623,233.718,344.578,233.718z"/>
	<path style="fill:#FFEA94;" d="M369.579,233.718h-32.591c-11.046,0-20,8.954-20,20s8.954,20,20,20h11.438   c-4.47,37.554-21.925,67.742-52.054,89.917c-6.103,4.491-13.773,5.138-20.52,1.726c-3.222-1.628-10.713-6.588-10.713-17.437   v-96.428h13.703c11.046,0,20-8.954,20-20s-8.954-20-20-20h-13.703v-91.105c0-11.046-8.954-20-20-20h-45.924   c-11.046,0-20,8.954-20,20s8.954,20,20,20h25.924v71.105h-40.737c-11.046,0-20,8.954-20,20s8.954,20,20,20h40.737v96.428   c0,22.586,12.516,42.946,32.663,53.133c8.559,4.328,17.776,6.461,26.948,6.461c12.459,0,24.831-3.939,35.332-11.668   c31.703-23.335,69.495-66.935,69.495-142.132C389.579,242.672,380.625,233.718,369.579,233.718z"/>
	<path d="M284.752,415.019c-10.439,0-20.929-2.513-30.333-7.268c-22.686-11.47-36.778-34.395-36.778-59.826v-23.559   c0-4.142,3.357-7.5,7.5-7.5s7.5,3.358,7.5,7.5v23.559c0,19.742,10.938,37.537,28.547,46.44c7.316,3.699,15.465,5.654,23.564,5.654   c11.133,0,21.813-3.531,30.886-10.208c30.311-22.31,66.441-64.03,66.441-136.092c0-6.893-5.607-12.5-12.5-12.5h-32.591   c-6.893,0-12.5,5.607-12.5,12.5s5.607,12.5,12.5,12.5h11.438c2.144,0,4.185,0.917,5.608,2.52c1.423,1.603,2.093,3.738,1.839,5.866   c-4.722,39.671-23.245,71.658-55.055,95.071c-8.432,6.205-19.027,7.095-28.351,2.379c-9.284-4.693-14.828-13.713-14.828-24.129   v-96.428c0-4.142,3.357-7.5,7.5-7.5h13.703c6.893,0,12.5-5.607,12.5-12.5s-5.607-12.5-12.5-12.5h-13.703   c-4.143,0-7.5-3.358-7.5-7.5v-91.105c0-6.893-5.607-12.5-12.5-12.5h-45.924c-6.893,0-12.5,5.607-12.5,12.5s5.607,12.5,12.5,12.5   h25.924c4.143,0,7.5,3.358,7.5,7.5v71.105c0,4.142-3.357,7.5-7.5,7.5h-40.737c-6.893,0-12.5,5.607-12.5,12.5s5.607,12.5,12.5,12.5   h40.737c4.143,0,7.5,3.358,7.5,7.5v42.867c0,4.142-3.357,7.5-7.5,7.5s-7.5-3.358-7.5-7.5v-35.367h-33.237   c-15.163,0-27.5-12.336-27.5-27.5s12.337-27.5,27.5-27.5h33.237v-56.105h-18.424c-15.163,0-27.5-12.336-27.5-27.5   s12.337-27.5,27.5-27.5h45.924c15.163,0,27.5,12.336,27.5,27.5v83.605h6.203c15.163,0,27.5,12.336,27.5,27.5   s-12.337,27.5-27.5,27.5h-6.203v88.928c0,6.446,4.133,9.498,6.597,10.743c4.229,2.14,8.856,1.748,12.69-1.073   c26.062-19.183,42.114-44.848,47.801-76.377h-2.74c-15.163,0-27.5-12.336-27.5-27.5s12.337-27.5,27.5-27.5h32.591   c15.163,0,27.5,12.336,27.5,27.5c0,78.331-39.452,123.812-72.549,148.172C312.861,410.479,299.106,415.018,284.752,415.019z"/>
</g>















</svg>
